<?xml version="1.0" encoding="UTF-8" standalone="no" ?>
<!DOCTYPE svg PUBLIC "-//W3C//DTD SVG 1.1//EN" "http://www.w3.org/Graphics/SVG/1.1/DTD/svg11.dtd">
<svg xmlns="http://www.w3.org/2000/svg" xmlns:xlink="http://www.w3.org/1999/xlink" version="1.1" width="200" height="480" viewBox="0 0 200 480" xml:space="preserve">
<desc>Created with Fabric.js 3.6.6</desc>
<defs>
</defs>
<g transform="matrix(0.82 0 0 0.82 259.88 242.51)"  >
<linearGradient id="SVGID_7" gradientUnits="userSpaceOnUse" gradientTransform="matrix(1 0 0 1 0 0)"  x1="293.117" y1="81.0514" x2="309.272" y2="638.709">
<stop offset="0%" style="stop-color:rgb(152,109,255);stop-opacity: 1"/>
<stop offset="100%" style="stop-color:rgb(152,109,255);stop-opacity: 0"/>
</linearGradient>
<path style="stroke: none; stroke-width: 0; stroke-dasharray: none; stroke-linecap: butt; stroke-dashoffset: 0; stroke-linejoin: miter; stroke-miterlimit: 4; fill: url(#SVGID_7); fill-rule: nonzero; opacity: 1;" vector-effect="non-scaling-stroke"  transform=" translate(-328.37, -323.31)" d="M 168.6 121.2 L 167.706 119.411 L 167.674 119.427 L 167.642 119.444 L 168.6 121.2 Z M 159 137.4 L 157.054 136.937 L 157.044 136.981 L 157.035 137.026 L 159 137.4 Z M 149.4 276 L 147.562 275.212 L 147.555 275.229 L 147.548 275.245 L 149.4 276 Z M 133.8 302.4 L 132.3 301.077 L 132.3 301.077 L 133.8 302.4 Z M 117 318 L 115.862 316.356 L 113.544 317.96 L 115.824 319.617 L 117 318 Z M 132.6 333 L 131.1 334.323 L 131.142 334.37 L 131.186 334.414 L 132.6 333 Z M 149.4 357 L 147.611 357.894 L 147.619 357.91 L 147.627 357.925 L 149.4 357 Z M 159 499.8 L 157.035 500.174 L 157.044 500.219 L 157.054 500.263 L 159 499.8 Z M 168.6 516 L 167.642 517.756 L 167.674 517.773 L 167.706 517.789 L 168.6 516 Z M 210.6 519.6 H 212.6 V 517.6 H 210.6 V 519.6 Z M 210.6 592.8 V 594.8 H 212.6 V 592.8 H 210.6 Z M 129.6 592.2 L 129.526 594.199 L 129.529 594.199 L 129.6 592.2 Z M 99.6 585.6 L 100.397 583.766 L 100.363 583.751 L 100.329 583.738 L 99.6 585.6 Z M 77.4 564.6 L 75.6256 565.523 L 75.6322 565.536 L 75.6391 565.548 L 77.4 564.6 Z M 64.2 388.2 L 62.3026 388.832 L 62.3063 388.843 L 62.31 388.854 L 64.2 388.2 Z M 48 361.8 L 49.3733 360.346 L 49.3733 360.346 L 48 361.8 Z M 21 351.6 H 19 V 353.6 H 21 V 351.6 Z M 21 282 L 20.926 280.001 L 19 280.073 V 282 H 21 Z M 48 271.8 L 49.3287 273.295 L 49.3513 273.275 L 49.3733 273.254 L 48 271.8 Z M 64.2 246 L 66.09 246.654 L 66.0937 246.643 L 66.0974 246.632 L 64.2 246 Z M 77.4 73.2 L 75.6256 72.2773 L 75.6256 72.2773 L 77.4 73.2 Z M 98.4 52.2 L 97.6026 50.3658 L 97.5874 50.3724 L 97.5724 50.3793 L 98.4 52.2 Z M 129 45.6 L 129.071 47.5987 L 129.107 47.5974 L 129.142 47.5949 L 129 45.6 Z M 210.6 44.4 H 212.6 V 42.4 H 210.6 V 44.4 Z M 210.6 117.6 V 119.6 H 212.6 V 117.6 H 210.6 Z M 188.4 115.6 C 179.848 115.6 172.897 116.816 167.706 119.411 L 169.494 122.989 C 173.903 120.784 180.152 119.6 188.4 119.6 V 115.6 Z M 167.642 119.444 C 162.484 122.258 159.096 128.363 157.054 136.937 L 160.946 137.863 C 162.904 129.637 165.916 124.942 169.558 122.956 L 167.642 119.444 Z M 157.035 137.026 C 155.398 145.623 154.6 159.184 154.6 177.6 H 158.6 C 158.6 159.216 159.402 145.977 160.965 137.774 L 157.035 137.026 Z M 154.6 177.6 V 236.4 H 158.6 V 177.6 H 154.6 Z M 154.6 236.4 C 154.6 251.394 152.232 264.315 147.562 275.212 L 151.238 276.788 C 156.168 265.285 158.6 251.806 158.6 236.4 H 154.6 Z M 147.548 275.245 C 143.21 285.894 138.116 294.485 132.3 301.077 L 135.3 303.723 C 141.484 296.714 146.79 287.706 151.252 276.755 L 147.548 275.245 Z M 132.3 301.077 C 126.365 307.803 120.885 312.878 115.862 316.356 L 118.138 319.644 C 123.515 315.922 129.235 310.597 135.3 303.723 L 132.3 301.077 Z M 115.824 319.617 C 120.053 322.694 125.142 327.571 131.1 334.323 L 134.1 331.677 C 128.058 324.829 122.747 319.706 118.176 316.383 L 115.824 319.617 Z M 131.186 334.414 C 137.409 340.637 142.89 348.452 147.611 357.894 L 151.189 356.106 C 146.31 346.348 140.591 338.163 134.014 331.586 L 131.186 334.414 Z M 147.627 357.925 C 152.261 366.807 154.6 376.884 154.6 388.2 H 158.6 C 158.6 376.316 156.139 365.593 151.173 356.075 L 147.627 357.925 Z M 154.6 388.2 V 460.2 H 158.6 V 388.2 H 154.6 Z M 154.6 460.2 C 154.6 478.22 155.398 491.578 157.035 500.174 L 160.965 499.426 C 159.402 491.222 158.6 478.18 158.6 460.2 H 154.6 Z M 157.054 500.263 C 159.096 508.837 162.484 514.942 167.642 517.756 L 169.558 514.244 C 165.916 512.258 162.904 507.563 160.946 499.337 L 157.054 500.263 Z M 167.706 517.789 C 172.897 520.384 179.848 521.6 188.4 521.6 V 517.6 C 180.152 517.6 173.903 516.416 169.494 514.211 L 167.706 517.789 Z M 188.4 521.6 H 210.6 V 517.6 H 188.4 V 521.6 Z M 208.6 519.6 V 592.8 H 212.6 V 519.6 H 208.6 Z M 210.6 590.8 H 163.2 V 594.8 H 210.6 V 590.8 Z M 163.2 590.8 C 152.024 590.8 140.848 590.6 129.671 590.201 L 129.529 594.199 C 140.752 594.6 151.976 594.8 163.2 594.8 V 590.8 Z M 129.674 590.201 C 119.104 589.81 109.352 587.659 100.397 583.766 L 98.8026 587.434 C 108.248 591.541 118.496 593.79 129.526 594.199 L 129.674 590.201 Z M 100.329 583.738 C 91.653 580.343 84.5822 573.72 79.1609 563.652 L 75.6391 565.548 C 81.4179 576.28 89.147 583.657 98.8712 587.462 L 100.329 583.738 Z M 79.1744 563.677 C 74.1926 554.097 71.6 539.876 71.6 520.8 H 67.6 C 67.6 540.124 70.2074 555.103 75.6256 565.523 L 79.1744 563.677 Z M 71.6 520.8 V 421.8 H 67.6 V 520.8 H 71.6 Z M 71.6 421.8 C 71.6 409.597 69.7691 398.174 66.09 387.546 L 62.31 388.854 C 65.8309 399.026 67.6 410.003 67.6 421.8 H 71.6 Z M 66.0974 387.568 C 62.4088 376.502 56.8467 367.404 49.3733 360.346 L 46.6268 363.254 C 53.5533 369.796 58.7912 378.298 62.3026 388.832 L 66.0974 387.568 Z M 49.3733 360.346 C 41.7669 353.162 32.2602 349.6 21 349.6 V 353.6 C 31.3398 353.6 39.8331 356.838 46.6268 363.254 L 49.3733 360.346 Z M 23 351.6 V 282 H 19 V 351.6 H 23 Z M 21.074 283.999 C 32.278 283.584 41.7392 280.041 49.3287 273.295 L 46.6713 270.305 C 39.8608 276.359 31.322 279.616 20.926 280.001 L 21.074 283.999 Z M 49.3733 273.254 C 56.8325 266.209 62.3965 257.324 66.09 246.654 L 62.31 245.346 C 58.8035 255.476 53.5675 263.791 46.6268 270.346 L 49.3733 273.254 Z M 66.0974 246.632 C 69.769 235.618 71.6 224.003 71.6 211.8 H 67.6 C 67.6 223.597 65.8311 234.782 62.3026 245.368 L 66.0974 246.632 Z M 71.6 211.8 V 117 H 67.6 V 211.8 H 71.6 Z M 71.6 117 C 71.6 97.9243 74.1926 83.7032 79.1744 74.1227 L 75.6256 72.2773 C 70.2074 82.6968 67.6 97.6757 67.6 117 H 71.6 Z M 79.1744 74.1227 C 84.2038 64.4507 90.9001 57.806 99.2276 54.0207 L 97.5724 50.3793 C 88.3 54.594 80.9962 61.9492 75.6256 72.2773 L 79.1744 74.1227 Z M 99.1975 54.0341 C 108.143 50.145 118.092 47.9908 129.071 47.5987 L 128.929 43.6012 C 117.508 44.0091 107.058 46.255 97.6026 50.3658 L 99.1975 54.0341 Z M 129.142 47.5949 C 140.294 46.7984 151.646 46.4 163.2 46.4 V 42.4 C 151.554 42.4 140.106 42.8016 128.858 43.605 L 129.142 47.5949 Z M 163.2 46.4 H 210.6 V 42.4 H 163.2 V 46.4 Z M 208.6 44.4 V 117.6 H 212.6 V 44.4 H 208.6 Z M 210.6 115.6 H 188.4 V 119.6 H 210.6 V 115.6 Z M 620.738 438 L 618.812 437.459 L 618.809 437.469 L 618.806 437.479 L 620.738 438 Z M 583.538 532.8 L 581.786 531.835 L 581.78 531.846 L 583.538 532.8 Z M 534.938 601.8 L 534.1 603.616 L 535.397 604.214 L 536.383 603.182 L 534.938 601.8 Z M 465.938 570 L 464.426 568.69 L 462.682 570.702 L 465.1 571.816 L 465.938 570 Z M 507.938 506.4 L 506.161 505.482 L 506.155 505.494 L 507.938 506.4 Z M 537.338 424.8 L 539.284 425.261 L 539.285 425.255 L 537.338 424.8 Z M 537.338 222.6 L 535.39 223.055 L 535.391 223.061 L 537.338 222.6 Z M 507.938 140.4 L 506.154 141.306 L 506.161 141.318 L 507.938 140.4 Z M 465.938 77.4 L 465.087 75.5896 L 462.667 76.7259 L 464.441 78.7266 L 465.938 77.4 Z M 534.938 45 L 536.383 43.6183 L 535.39 42.5782 L 534.087 43.1896 L 534.938 45 Z M 620.738 209.4 L 618.806 209.921 L 618.81 209.934 L 618.814 209.947 L 620.738 209.4 Z M 633.738 323.4 C 633.738 364.036 628.758 402.052 618.812 437.459 L 622.663 438.541 C 632.717 402.748 637.738 364.364 637.738 323.4 H 633.738 Z M 618.806 437.479 C 609.241 472.95 596.897 504.397 581.786 531.835 L 585.289 533.765 C 600.578 506.003 613.034 474.25 622.669 438.521 L 618.806 437.479 Z M 581.78 531.846 C 566.642 559.731 550.541 582.576 533.492 600.418 L 536.383 603.182 C 553.734 585.024 570.033 561.869 585.295 533.754 L 581.78 531.846 Z M 535.775 599.984 L 466.775 568.184 L 465.1 571.816 L 534.1 603.616 L 535.775 599.984 Z M 467.449 571.31 C 483.17 553.17 497.257 531.83 509.72 507.306 L 506.155 505.494 C 493.818 529.77 479.905 550.83 464.426 568.69 L 467.449 571.31 Z M 509.714 507.318 C 522.2 483.153 532.052 455.795 539.284 425.261 L 535.391 424.339 C 528.223 454.604 518.475 481.647 506.161 505.482 L 509.714 507.318 Z M 539.285 425.255 C 546.525 394.284 550.138 360.329 550.138 323.4 H 546.138 C 546.138 360.071 542.55 393.716 535.39 424.345 L 539.285 425.255 Z M 550.138 323.4 C 550.138 286.471 546.525 252.714 539.284 222.139 L 535.391 223.061 C 542.55 253.286 546.138 286.729 546.138 323.4 H 550.138 Z M 539.285 222.145 C 532.054 191.211 522.202 163.651 509.714 139.482 L 506.161 141.318 C 518.473 165.149 528.221 192.389 535.39 223.055 L 539.285 222.145 Z M 509.72 139.494 C 497.256 114.966 483.164 93.8196 467.434 76.0734 L 464.441 78.7266 C 479.911 96.1804 493.819 117.034 506.155 141.306 L 509.72 139.494 Z M 466.788 79.2103 L 535.788 46.8103 L 534.087 43.1896 L 465.087 75.5896 L 466.788 79.2103 Z M 533.492 46.3817 C 550.541 64.2237 566.642 87.0688 581.78 114.954 L 585.295 113.046 C 570.033 84.9312 553.734 61.7762 536.383 43.6183 L 533.492 46.3817 Z M 581.78 114.954 C 596.895 142.797 609.241 174.448 618.806 209.921 L 622.669 208.879 C 613.034 173.152 600.58 141.202 585.295 113.046 L 581.78 114.954 Z M 618.814 209.947 C 628.758 244.95 633.738 282.764 633.738 323.4 H 637.738 C 637.738 282.436 632.717 244.25 622.661 208.853 L 618.814 209.947 Z" stroke-linecap="round" />
</g>
</svg>