<?xml version="1.0" encoding="utf-8"?>
<!-- Svg Vector Icons : http://www.onlinewebfonts.com/icon -->
<!DOCTYPE svg PUBLIC "-//W3C//DTD SVG 1.1//EN" "http://www.w3.org/Graphics/SVG/1.1/DTD/svg11.dtd">
<svg version="1.1" xmlns="http://www.w3.org/2000/svg" xmlns:xlink="http://www.w3.org/1999/xlink" x="0px" y="0px" viewBox="0 0 256 256" enable-background="new 0 0 256 256" xml:space="preserve">
<metadata> Svg Vector Icons : http://www.onlinewebfonts.com/icon </metadata>
<g><g><path fill="#000000" d="M184,141.8c-1-0.2-3-0.3-6.1-0.3h-4.1v11.9h4.6c3.3,0,5.5-0.2,6.6-0.7c1.1-0.4,2-1.1,2.6-2.1s1-2,1-3.3c0-1.5-0.4-2.8-1.3-3.8C186.5,142.7,185.3,142,184,141.8z M211.1,123.9c-3.2,0-6.4,0.4-9.3,1.3c0.5-2.4,0.8-4.9,0.8-7.5c0-19.1-15.4-34.5-34.3-34.5c-7.8,0-15.1,2.6-20.8,7.1c-9.5-16.7-27.4-28-47.9-28c-28.3,0-51.6,21.5-54.7,49.1C25.1,114.5,10,131.6,10,152.3c0,22.9,18.5,41.4,41.3,41.4h159.8l0,0c19.3,0,34.9-15.6,34.9-34.9C246,139.5,230.4,123.9,211.1,123.9z M90,176.3h-8.4V158H65.1v18.3h-8.4v-41.9h8.4v16.5h16.5v-16.5H90V176.3z M127.3,141.5H115v34.8h-8.4v-34.8H94.2v-7.1h33.1L127.3,141.5L127.3,141.5z M161.5,141.5h-12.3v34.8h-8.4v-34.8h-12.4v-7.1h33.1V141.5z M196,153.8c-0.9,1.7-2.1,3.1-3.5,4.1c-1.4,1-2.9,1.7-4.4,2c-2,0.4-4.9,0.6-8.7,0.6h-5.5v15.8h-8.4v-41.9h13.5c5.1,0,8.5,0.2,10,0.7c2.4,0.7,4.4,2,6,4.1c1.6,2.1,2.4,4.8,2.4,8.2C197.4,149.9,196.9,152.1,196,153.8z"/></g></g>
</svg>